<?xml version="1.0" encoding="UTF-8" standalone="no"?>
<!-- Created with Inkscape (http://www.inkscape.org/) -->

<svg
   xmlns:dc="http://purl.org/dc/elements/1.1/"
   xmlns:cc="http://creativecommons.org/ns#"
   xmlns:rdf="http://www.w3.org/1999/02/22-rdf-syntax-ns#"
   xmlns:svg="http://www.w3.org/2000/svg"
   xmlns="http://www.w3.org/2000/svg"
   xmlns:sodipodi="http://sodipodi.sourceforge.net/DTD/sodipodi-0.dtd"
   xmlns:inkscape="http://www.inkscape.org/namespaces/inkscape"
   width="300mm"
   height="300mm"
   viewBox="0 0 300 300"
   version="1.1"
   id="svg4572"
   inkscape:version="0.92.5 (2060ec1f9f, 2020-04-08)"
   sodipodi:docname="logo-base.svg"
   inkscape:export-filename="/home/cade/projects/kscript/extras/vscode-extension/logo.png"
   inkscape:export-xdpi="254"
   inkscape:export-ydpi="254">
  <defs
     id="defs4566" />
  <sodipodi:namedview
     id="base"
     pagecolor="#ffffff"
     bordercolor="#666666"
     borderopacity="1.0"
     inkscape:pageopacity="1"
     inkscape:pageshadow="2"
     inkscape:zoom="0.7"
     inkscape:cx="551.3178"
     inkscape:cy="744.35779"
     inkscape:document-units="mm"
     inkscape:current-layer="layer1"
     showgrid="false"
     inkscape:window-width="2560"
     inkscape:window-height="1376"
     inkscape:window-x="0"
     inkscape:window-y="27"
     inkscape:window-maximized="1" />
  <metadata
     id="metadata4569">
    <rdf:RDF>
      <cc:Work
         rdf:about="">
        <dc:format>image/svg+xml</dc:format>
        <dc:type
           rdf:resource="http://purl.org/dc/dcmitype/StillImage" />
        <dc:title></dc:title>
      </cc:Work>
    </rdf:RDF>
  </metadata>
  <g
     inkscape:label="Layer 1"
     inkscape:groupmode="layer"
     id="layer1"
     transform="translate(0,3)">
    <path
       style="fill:#000000;stroke-width:0.14561532"
       d="m 34.400825,236.96086 v -2.32982 H 150.89307 267.38533 v 2.32982 2.32985 H 150.89307 34.400825 Z M 196.90751,208.40821 c -7.06963,-0.49011 -12.09675,-1.3956 -17.83786,-3.21304 -4.64275,-1.46974 -14.68932,-5.12365 -15.46017,-5.6228 -0.12521,-0.081 0.41247,-3.27081 2.01853,-11.97662 1.20399,-6.52638 2.23088,-11.90727 2.28197,-11.95755 0.0511,-0.0502 1.27238,0.36093 2.71397,0.91377 6.0663,2.32648 13.60786,4.80449 17.91068,5.88512 6.24596,1.56858 12.67368,2.15432 20.00515,1.82298 10.53827,-0.47627 14.95877,-1.79523 16.49842,-4.92265 0.41424,-0.84149 0.48157,-1.14167 0.53076,-2.36625 0.0968,-2.41093 -0.50663,-4.08942 -2.08205,-5.79103 -2.64701,-2.85902 -6.89125,-4.70605 -21.04601,-9.15893 -11.14631,-3.50649 -16.3402,-5.59553 -21.10724,-8.48966 -4.16125,-2.52637 -6.8658,-4.85397 -9.39997,-8.08991 -3.22865,-4.12272 -4.77505,-7.84536 -5.47433,-13.1782 -0.26818,-2.04523 -0.2299,-6.84432 0.0712,-8.93388 1.78064,-12.3548 9.58001,-21.37564 22.53714,-26.066687 5.37817,-1.94713 10.94,-3.004899 18.17847,-3.45724 3.04424,-0.190235 12.36167,-0.09769 15.28961,0.152035 10.03072,0.855117 18.7491,2.725782 25.04582,5.373981 1.31861,0.554553 1.38127,0.601075 1.33926,0.993961 -0.10188,0.95201 -4.29406,23.72017 -4.38604,23.82095 -0.088,0.0962 -4.54662,-1.24142 -11.51474,-3.4544 -5.52363,-1.75424 -10.13106,-2.55521 -16.47642,-2.86434 -2.48327,-0.1209 -4.12995,-0.11988 -6.42728,0.004 -7.43143,0.40118 -10.66722,1.40021 -13.40607,4.13907 -2.12642,2.12643 -2.52326,4.59268 -1.16956,7.26877 0.96363,1.905 3.89867,4.22203 7.70098,6.07943 3.41435,1.6679 5.76243,2.57336 13.03258,5.02553 13.9452,4.70358 18.87654,6.82231 24.25371,10.42043 5.47236,3.66181 9.8096,8.97284 11.70639,14.33463 1.24591,3.52195 1.67121,6.59362 1.57034,11.34196 -0.0762,3.58731 -0.23108,4.79516 -0.99968,7.79538 -2.7013,10.54473 -10.56934,17.4956 -24.29907,21.46657 -4.97824,1.43983 -10.67757,2.32228 -17.52641,2.71365 -2.9689,0.16959 -11.57406,0.16407 -14.07213,-0.009 z M 49.144241,127.50035 49.180789,49.055882 63.305475,46.692847 c 7.768577,-1.29967 14.239359,-2.367088 14.379514,-2.372043 0.242189,-0.0086 0.254825,2.352078 0.254825,47.607199 0,26.188917 0.04191,47.616217 0.09317,47.616217 0.05124,0 0.165899,-0.0905 0.254826,-0.20101 0.08891,-0.11063 1.116107,-1.3392 2.282642,-2.73029 4.70081,-5.60575 9.66434,-12.0352 13.69997,-17.74608 6.173788,-8.73664 10.876648,-15.72992 13.342088,-19.84009 l 1.55039,-2.584666 h 17.22472 c 9.47359,0 17.22471,0.03509 17.22471,0.07809 0,0.232559 -6.61056,8.261206 -11.54612,14.023006 -9.23467,10.78052 -13.77799,15.88271 -21.22133,23.83172 -1.72486,1.84203 -4.37314,4.69245 -5.88508,6.33428 -1.51191,1.64181 -2.94553,3.19566 -3.18579,3.45299 l -0.43683,0.46785 3.11769,3.1772 c 6.86936,7.00051 15.45427,17.03756 23.44673,27.41279 7.46363,9.68871 14.14182,19.76007 18.63529,28.10375 0.62541,1.16129 1.18039,2.22611 1.23327,2.36626 0.0911,0.24175 -0.7462,0.25468 -16.33754,0.25209 l -16.4337,-0.004 -1.09212,-2.13298 c -7.36401,-14.38251 -22.167978,-35.20551 -33.444968,-47.04314 -1.239801,-1.30144 -2.314442,-2.36625 -2.388093,-2.36625 -0.08098,0 -0.13391,10.18993 -0.13391,25.77392 v 25.77391 H 63.523774 49.107724 Z"
       id="path5182"
       inkscape:connector-curvature="0"
       inkscape:export-filename="/home/cade/projects/kscript/extras/vscode-extension/path5182.png"
       inkscape:export-xdpi="254"
       inkscape:export-ydpi="254" />
  </g>
</svg>
